<?xml version="1.0" encoding="utf-8"?>
<!-- Generator: Adobe Illustrator 23.0.6, SVG Export Plug-In . SVG Version: 6.00 Build 0)  -->
<svg version="1.1" id="Layer_1" xmlns="http://www.w3.org/2000/svg" xmlns:xlink="http://www.w3.org/1999/xlink" x="0px" y="0px"
	 viewBox="0 0 514.1 917" style="enable-background:new 0 0 514.1 917;" xml:space="preserve">
<style type="text/css">
	.st0{stroke:#000000;stroke-width:20;stroke-miterlimit:10;}
</style>
<path class="st0" d="M143.7,533.2c101.6,0.1,203.2,0.1,304.7,0c2,0,4,0,5.9,0c5.3,0.1,8.4,2.8,8.4,8.1c0.1,5.5-3.6,6.9-8.4,6.8
	c-30.2-0.1-60.4-0.1-90.6,0c-12.1,0-24.1,0-35.7,0c8.8,5.2,18,9.9,26.5,15.8c11.2,7.7,17.3,19.1,20.6,32
	c13.5,52.6,26.8,105.1,40,157.8c14.3,56.6,28.7,113.2,43.1,169.8c11.8,46.7,23.7,93.4,35.5,140.1c0.1,0.4,0.3,1,0.7,2.6
	c-3.2,0-7.4-0.2-10.7,0l-4.9,0c-13.1-52.1-28-109.4-41.1-161.5c-14.2-56.1-28.1-112.2-42.3-168.3c-11.6-45.9-23.4-91.8-35.1-137.7
	c-5-19.6-24.2-35.5-44.6-35.6c-38.6-0.3-77.2-0.3-115.8,0c-21.8,0.2-40.5,16.9-46,39c-13,52.1-26.1,104.2-39.4,156.2
	c-19.4,76.5-38.9,152.9-58.3,229.4c-6.6,26-13,52.1-19.5,78.1H21.5c2.4-10,4.5-19.4,6.9-28.8c21.6-85.6,43.3-171.2,65-256.8
	c15.4-60.7,30.4-121.5,46.3-182.2c6.1-23.5,20.2-40.5,44.7-47.2c1.6-0.6,3.1-1.2,4.5-2l-0.1-1c-10.5,0-21.1-0.8-31.5,0.1"/>
<path class="st0" d="M358.9,548c-10.4-1-21-0.1-31.5-0.1l-0.1,1c1.4,0.8,2.9,1.5,4.5,2c24.4,6.7,38.5,23.8,44.7,47.2
	c15.8,60.6,30.9,121.4,46.3,182.2c21.7,85.6,43.3,171.2,65,256.8c2.4,9.4,4.5,18.8,6.9,28.8h-15.3c-6.5-26-12.9-52.1-19.5-78.1
	c-19.5-76.4-38.9-152.9-58.3-229.4c-13.3-52-26.4-104.1-39.4-156.2c-5.5-22.2-24.2-38.8-46-39c-38.6-0.3-77.2-0.3-115.8,0
	c-20.4,0.2-39.6,16-44.6,35.6c-11.7,45.9-23.5,91.8-35.1,137.7c-14.2,56.1-28.1,112.3-42.3,168.3c-13.2,52.1-28,109.4-41.1,161.5
	l-4.9,0c-3.3-0.2-7.5,0-10.7,0c0.4-1.6,0.5-2.2,0.7-2.6c11.8-46.7,23.7-93.4,35.5-140.1c14.4-56.6,28.7-113.2,43.1-169.8
	c13.2-52.6,26.6-105.2,40-157.8c3.3-12.9,9.4-24.3,20.6-32c8.5-5.8,17.7-10.6,26.5-15.8c-11.6,0-23.7,0-35.7,0
	c-30.2,0-60.4,0-90.6,0c-4.8,0-8.5-1.3-8.4-6.8c0.1-5.3,3.1-8,8.4-8.1c2,0,4,0,5.9,0c101.6,0.1,203.2,0,304.7,0"/>
</svg>
