<?xml version="1.0" encoding="utf-8"?>
<!-- Generator: Adobe Illustrator 23.0.6, SVG Export Plug-In . SVG Version: 6.00 Build 0)  -->
<svg version="1.1" id="Layer_1" xmlns="http://www.w3.org/2000/svg" xmlns:xlink="http://www.w3.org/1999/xlink" x="0px" y="0px"
	 viewBox="0 0 607.7 985.7" style="enable-background:new 0 0 607.7 985.7;" xml:space="preserve">
<style type="text/css">
	.st0{fill:#AEAEAE;stroke:#AEAEAE;stroke-width:20;stroke-miterlimit:10;}
</style>
<g>
	<path class="st0" d="M229.7,418.3c-10.5,0-21.1-0.8-31.5,0.1c-37.1,3.4-65.2-16.2-74.4-53.1c-23.2-93.7-47.1-187.2-70.7-280.8
		c-2.9-11.4-5.1-22.9-8.5-34.1c-1.7-5.6-0.1-8.8,4.7-10.3c5.1-1.6,8.3,1.1,9.7,6.3c4.1,16.1,8.5,32.1,12.6,48.1
		c11.5,45.5,22.9,91,34.3,136.5c11.4,45.5,22.8,91,34.1,136.5c5.1,20.4,24,36,44.6,36c101.6,0.1,203.2,0,304.7,0c2,0,4,0,5.9,0
		c5.3,0.1,8.4,2.8,8.4,8.1c0.1,5.5-3.6,6.9-8.4,6.8c-30.2-0.1-60.4,0-90.6,0c-12.1,0-24.1,0-35.7,0c8.8,5.2,18,9.9,26.5,15.8
		c11.2,7.7,17.3,19.1,20.6,32c13.5,52.6,26.7,105.2,40,157.8c14.3,56.6,28.7,113.2,43.1,169.8c11.8,46.7,23.7,93.4,35.5,140.1
		c0.1,0.4,0.3,1,0.7,2.6c-3.2,0-7.4-0.2-10.7,0c-4.9,0-4.9,0-4.9,0c-13.1-52.1-28-109.4-41.1-161.5
		c-14.2-56.1-28.1-112.2-42.3-168.3c-11.6-45.9-23.4-91.8-35.1-137.7c-5-19.6-24.2-35.5-44.6-35.6c-38.6-0.3-77.2-0.4-115.8,0
		c-21.8,0.2-40.5,16.9-46,39c-13,52.1-26.1,104.2-39.4,156.2c-19.4,76.5-38.9,152.9-58.3,229.4c-6.6,26-13,52.1-19.5,78.1
		c-5.3,0-9.9,0-15.3,0c2.4-10,4.5-19.4,6.9-28.8c21.6-85.6,43.3-171.2,65-256.8c15.4-60.7,30.4-121.5,46.3-182.2
		c6.1-23.5,20.2-40.5,44.7-47.2c1.6-0.4,3-1.3,4.5-2C229.8,418.9,229.7,418.6,229.7,418.3z"/>
</g>
</svg>
